# xmcd
#
# Track frame offsets:
# 150
# 14862
# 29869
# 42836
# 57582
# 73522
# 90429
# 104150
# 119062
# 137410
# 149924
# 164235
# 178364
# 192200
# 204103
# 218320
# 231214
# 246542
# 261971
# 275617
#
# Disc length: 3888 seconds
#
#
# Revision: 0
# Processed by: cddbd v1.5.1PL2 Copyright (c) Steve Scherf et al.
# Submitted via: FreeRIP 2.944 
#
DISCID=4b0f2e14
DTITLE=campeao do interior - campeao do interior
DYEAR=1900
DGENRE=country
TTITLE0=pra da um picote - rick e rener
TTITLE1=cowboy brasileiro - hugo e tiago
TTITLE2=clube do batidão - rionegro e solimoes
TTITLE3=de bad boy e peao - juliano cezar
TTITLE4=vida marvada - chitãozinho e xororo
TTITLE5=fera mansa - zezé di camargo e luciano
TTITLE6=eu sou peao - luiz claudio e giuliano
TTITLE7=a galera do chapeu- gino e geno
TTITLE8=bebedeira - rick e rener
TTITLE9=coice de vaca- gian e giovani
TTITLE10=de latinha na mão- leonardo
TTITLE11=assovia - edson e udson
TTITLE12=festa do peao - rio negro e solimoes
TTITLE13=na saideira - eduardo costa
TTITLE14=pizeiro - rick e rener
TTITLE15=sapatio, sapatio - pedro e thiago
TTITLE16=eu me enganei - ataide e alexandre
TTITLE17=a gente vai - edson e hudson
TTITLE18=peao de vitrine - gian e gionvani
TTITLE19=show brasileiro - pedro e thiago
EXTD=
EXTT0=
EXTT1=
EXTT2=
EXTT3=
EXTT4=
EXTT5=
EXTT6=
EXTT7=
EXTT8=
EXTT9=
EXTT10=
EXTT11=
EXTT12=
EXTT13=
EXTT14=
EXTT15=
EXTT16=
EXTT17=
EXTT18=
EXTT19=
PLAYORDER=
